<svg xmlns="http://www.w3.org/2000/svg" viewBox="0 0 512 512">
    <defs>
        <style>.cls-1{fill:#00bc6e}.cls-4{fill:#f6edff}</style>
    </defs>
    <g id="Dollar_Coin" data-name="Dollar Coin">
        <path class="cls-1" d="M234.667 490.667C116.846 490.667 21.333 385.603 21.333 256S116.846 21.333 234.667 21.333h42.666c117.821 0 213.334 105.064 213.334 234.667s-95.513 234.667-213.334 234.667z"/>
        <ellipse cx="234.667" cy="256" rx="213.333" ry="234.667" style="fill:#19e77c"/>
        <path class="cls-1" d="M234.667 64C140.562 64 64 150.135 64 256v.647l.001.11v.193l.002.102v.228c0 .032 0 .057.002.09V257.568c0 .032 0 .074.002.106V257.846l.001.045a5.186 5.186 0 0 0 .002.148v.098l.001.045.001.13v.033l.002.115v.054l.002.089v.147c.002.015.002.034.002.049l.002.138v.024c0 .039 0 .077.002.116v.05l.001.095.001.047.002.113v.028l.003.142v.031l.002.11.001.047.002.103v.037l.003.13v.014l.003.142v.038l.003.104v.045l.003.106v.038l.003.142v.006c.001.045.003.088.003.133l.002.046c0 .026 0 .069.002.094v.054l.003.095.001.045.003.137.001.037.003.104.001.051.002.091.001.052.003.106.001.035.004.139v.037c.002.038.003.063.003.102l.002.051.002.091.002.053.004.128v.009l.004.137.001.052.003.092.002.05c0 .033.002.065.003.097l.002.044.003.14.001.014.004.127.001.043.004.1.002.045.003.102.001.042.005.138.001.03.004.111.001.043.004.105.001.04.005.115v.027c.003.045.005.094.006.139l.001.04.004.1.002.052.004.092.002.049.004.112.002.045.005.12.001.045.004.094c0 .02.002.035.003.055l.003.088.003.053.005.133.002.042.004.097.002.056.004.083.003.06.004.092.002.045.006.132.002.054.004.087.003.057.004.087.002.051.006.111v.029l.007.136.002.045.005.098.003.046.004.097.003.049.006.12.001.037.006.113.003.056.004.088.003.054.005.09.002.05.007.133.002.037.006.103.003.054.004.087.004.053.004.092.004.05.007.132.002.05.005.084.004.064.004.08.004.058.005.09.003.06.007.118.003.058.005.08.004.064.005.081.003.053.007.108.004.066.006.1.003.052.005.085.004.058.005.09.003.048.009.132.003.048.005.09.004.057.006.083.003.06.006.086.004.05.008.13.004.055.005.085.005.06.004.074.005.067.006.082c0 .025.004.054.005.08l.007.103.004.058.006.08.004.058.006.086.003.055.01.134v.011l.01.124.004.053.006.087.004.056.006.082.004.058.01.127.004.055.006.083.005.064.006.073.004.063.007.083.004.056.01.129.003.051.007.086.005.06.006.078.005.062.007.085.006.082.008.096.004.058.007.083.005.059.006.079.005.06.008.103.007.078.007.082.005.066.006.07.006.068.006.073.005.063.01.124a2.75 2.75 0 0 1 .012.133l.006.075.006.062.005.073.007.071.008.091.008.093.007.076.005.062.006.07.006.068.006.068.006.067c.005.045.01.1.013.145l.004.043.008.08.005.057.007.075.005.062.007.074.006.072.012.123.005.058.007.076.006.062.007.073.006.063.007.071.006.062.013.136.005.057.007.076.006.062.006.071.008.068.01.106.008.084.007.072.006.06.008.077.005.06.008.072.007.071.012.124.006.06.008.078.006.054.007.08.006.057.008.075.008.071.012.124.006.058.009.076.006.06.007.073.008.068c.001.02.004.046.007.066l.012.122.008.07.006.065c.004.024.006.045.008.07l.007.066.008.07.007.066.013.119.007.07.008.071.007.065.008.073.007.057.008.078.005.05.016.14.007.063.009.075.006.056.01.08.004.046.032.285.006.05.01.078.006.058.009.076.007.058.01.098.012.097.008.068a2.436 2.436 0 0 0 .016.138l.008.062.008.073.007.055.016.141.008.057.008.071.007.064a2.596 2.596 0 0 1 .017.135l.009.072.005.046.019.155.006.05.01.077.007.055.01.08.005.05.035.276.007.057.009.073.008.06.009.074.008.06.019.15.005.04.01.084.007.048.01.08.007.053.01.081.005.042.022.167.005.035.01.084.008.051.01.079.006.052.01.08.007.045.02.154.007.049.01.08.008.054.01.075.008.057.039.29.004.029.012.094.005.036.013.092.004.026.041.3.007.048.01.082.008.049.011.081.006.04.023.163.006.045.011.08.008.048.011.084.007.05.011.078.01.072.017.117.01.062.01.075.008.053.011.081.007.05.042.285.006.04.013.088.006.037.013.092.004.028.046.305.005.036.013.086.006.042.046.301.004.03a3.686 3.686 0 0 1 .02.133l.013.083.006.036c.015.097.03.205.046.302l.005.03.014.093.005.034.015.095.004.022.048.307.005.036.015.091.005.034.016.098.052.33.005.03.015.093.005.035c.006.029.01.063.015.092l.003.014.034.212.002.01.016.1.004.025.016.098.005.027.053.323.002.009.016.1.004.028.017.1.001.005.055.328.004.025.017.099.003.02.076.444.003.014.017.104.003.02.077.438.003.022.018.102.002.013.06.335v.004l.019.11.002.01.081.456v.002l.02.108.003.017c.124.688.251 1.379.382 2.065v.001c12.472 65.603 54.824 118.896 110.193 140.905a10.667 10.667 0 1 0 7.88-19.824C125.723 393.383 85.333 328.57 85.333 256c0-94.106 66.991-170.667 149.334-170.667a10.667 10.667 0 0 0 0-21.333z"/>
        <path d="M234.667 64c94.106 0 170.666 86.13 170.666 192s-76.56 192-170.666 192S64 361.87 64 256 140.56 64 234.667 64m0-42.667C116.846 21.333 21.333 126.397 21.333 256s95.513 234.667 213.334 234.667S448 385.603 448 256 352.488 21.333 234.667 21.333z" style="fill:#75f1b0"/>
        <path class="cls-4" d="M266.667 234.667h-64a10.667 10.667 0 0 1 0-21.334h74.666a21.333 21.333 0 1 0 0-42.666h-74.666a53.333 53.333 0 1 0 0 106.666h64a10.667 10.667 0 0 1 0 21.334H192a21.333 21.333 0 0 0 0 42.666h74.667a53.333 53.333 0 1 0 0-106.666z"/>
        <rect class="cls-4" x="213.333" y="320" width="42.667" height="64" rx="21.333" ry="21.333"/>
        <rect class="cls-4" x="213.333" y="128" width="42.667" height="85.333" rx="21.333" ry="21.333"/>
        <g>
            <path d="M234.667 21.333h-.55c-.036 0-.064 0-.099.002h-.388c-.057 0-.104 0-.161.002h-.16l-.065.002h-.263l-.062.002h-.107l-.056.001c-.043 0-.088 0-.131.002h-.03l-.16.001-.044.001-.119.002h-.059l-.1.001-.067.001-.094.002h-.072c-.035 0-.058 0-.094.002l-.063.001-.132.002h-.029l-.161.002c-.018.002-.029.002-.047.002l-.113.002h-.059l-.107.003-.058.001-.104.001-.059.002-.11.002h-.051c-.043.002-.086.003-.13.003a.295.295 0 0 1-.033.001l-.162.004h-.037c-.043.002-.081.003-.124.003l-.056.001c-.037.001-.069.003-.106.003l-.06.001a2.647 2.647 0 0 1-.102.003h-.063c-.035.002-.067.004-.103.004a.881.881 0 0 1-.058 0l-.114.005-.049.001-.159.004-.04.001-.116.003-.07.002c-.036 0-.058.002-.094.003l-.067.001a2.303 2.303 0 0 1-.096.003c-.018.001-.045.001-.064.003-.035 0-.069 0-.104.002-.018.001-.039.001-.057.003a3.345 3.345 0 0 0-.163.004l-.157.005-.045.001-.116.004c-.018.001-.043.001-.062.003l-.098.002a1.18 1.18 0 0 1-.066.003l-.095.004-.07.001-.096.004-.06.003-.115.004h-.047l-.16.007-.04.002-.118.004a.964.964 0 0 1-.061.002l-.102.004-.063.003-.096.004c-.024 0-.045 0-.07.002l-.094.004-.065.003-.104.004-.056.002-.157.007-.028.001-.133.007c-.02 0-.039 0-.057.002l-.104.004a.964.964 0 0 1-.061.003l-.1.005-.064.002-.103.004a.8.8 0 0 1-.056.003c-.035.003-.08.004-.117.006l-.043.002-.322.015-.052.003-.11.005a.883.883 0 0 1-.058.003l-.1.005-.064.004a2.568 2.568 0 0 0-.1.005l-.062.003-.104.005a.807.807 0 0 1-.057.003l-.318.016-.053.004-.106.006-.066.004c-.027 0-.061.002-.09.005l-.075.004a1.904 1.904 0 0 0-.086.005l-.07.004a2.437 2.437 0 0 0-.098.005l-.063.004-.13.008a.184.184 0 0 0-.027.001l-.157.01-.058.002-.104.006-.062.004-.097.007-.065.004c-.029 0-.07.003-.098.005l-.064.004-.097.006-.063.004c-.042.003-.092.005-.134.01a.142.142 0 0 0-.023 0l-.16.01-.046.003a3.51 3.51 0 0 1-.113.007l-.056.004-.105.008c-.024.001-.039.001-.063.004a2.64 2.64 0 0 0-.098.006l-.06.004-.105.007-.058.003-.131.01-.025.002-.16.01-.047.005c-.035 0-.078.005-.113.007l-.056.004-.106.007-.056.005-.11.008-.051.002-.11.01-.053.003-.129.01-.03.002-.16.012a.318.318 0 0 0-.036.002l-.122.01-.058.003-.102.008-.06.005-.104.008-.054.004-.11.01-.055.003-.127.01a.213.213 0 0 0-.029.003l-.16.012-.039.004-.121.009a.772.772 0 0 0-.055.005l-.103.008-.063.005-.098.008-.063.005a2.554 2.554 0 0 0-.099.01l-.06.003-.113.01-.045.005a6.025 6.025 0 0 0-.158.013l-.035.002c-.043.004-.082.008-.125.01a.7.7 0 0 1-.052.006l-.107.009-.061.005-.098.01-.062.004a2.677 2.677 0 0 0-.102.01c-.018 0-.04.003-.057.005a3.348 3.348 0 0 0-.119.01l-.039.004-.159.014a.345.345 0 0 0-.035.003l-.125.012a.7.7 0 0 0-.052.005l-.107.009-.056.005-.106.01c-.019.002-.037.003-.055.006l-.105.009-.056.005-.12.012-.038.004-.319.03c-.018.002-.03.002-.048.005a3.159 3.159 0 0 0-.11.01l-.06.006-.101.01c-.023.003-.033.004-.056.005l-.108.012c-.012 0-.04.004-.053.005l-.118.012-.04.004-.16.015-.008.002-.152.015-.042.004-.115.012a.898.898 0 0 0-.058.006l-.1.01c-.024.002-.038.005-.063.006a2.34 2.34 0 0 1-.095.01l-.064.007-.105.012a.701.701 0 0 0-.052.005l-.14.014-.023.003-.15.016a.858.858 0 0 1-.057.006l-.102.012-.065.006a2.156 2.156 0 0 0-.09.01l-.071.007c-.028.004-.06.008-.087.01l-.072.008-.09.01a2.626 2.626 0 0 1-.161.018l-.111.013a2.766 2.766 0 0 0-.103.011l-.068.007c-.027.004-.06.008-.088.01l-.07.008a1.893 1.893 0 0 1-.09.01l-.07.008-.085.01-.073.009-.089.01-.069.008-.11.013c-.019.002-.026.002-.043.005l-.155.018-.058.007-.097.012-.07.007c-.035.006-.055.007-.09.012l-.066.008-.092.01-.07.01-.088.01-.067.008-.091.011-.085.01-.133.016c-.023.003-.04.006-.065.008l-.089.012c-.024.003-.05.005-.074.01-.028.002-.056.006-.084.01l-.075.009-.08.01-.075.01a2.109 2.109 0 0 0-.09.01l-.066.009a2.53 2.53 0 0 0-.098.013l-.058.006a6.119 6.119 0 0 1-.151.02l-.057.008a2.708 2.708 0 0 0-.1.013l-.068.007a1.82 1.82 0 0 1-.089.012l-.068.01-.092.01-.064.01a2.653 2.653 0 0 0-.099.013l-.058.008a3.05 3.05 0 0 0-.109.014l-.049.007c-.056.006-.098.013-.154.02l-.047.006-.108.014-.062.01a2.55 2.55 0 0 0-.098.012l-.061.008-.095.013-.064.01-.101.013-.054.007-.12.017a.325.325 0 0 0-.036.005c-.056.008-.102.014-.158.02a.261.261 0 0 1-.03.006l-.125.017-.06.01c-.036.003-.062.007-.097.012l-.061.01-.097.012c-.023.004-.04.005-.063.01l-.097.014a.798.798 0 0 0-.058.007l-.111.016-.047.007-.312.045-.051.007-.106.015-.058.01c-.029.003-.068.01-.097.014-.023.002-.04.005-.063.009l-.098.014-.059.01c-.035.005-.069.008-.104.014l-.053.007c-.055.01-.1.016-.154.024l-.015.002c-.04.007-.1.015-.141.021l-.053.008-.103.016-.06.009-.097.014-.063.01-.094.015-.063.009-.097.016-.06.009a25.329 25.329 0 0 0-.353.054c-.034.006-.08.012-.115.019l-.052.008c-.027.003-.073.011-.1.015l-.064.01-.094.015-.062.01-.1.016c-.019.003-.038.005-.055.009l-.137.02-.02.005-.15.023-.061.01-.097.016c-.023.004-.038.005-.061.01l-.096.015-.062.01a2.472 2.472 0 0 1-.096.016.81.81 0 0 0-.06.01l-.098.016-.06.01-.13.021-.023.004-.152.025-.059.01-.098.016-.065.012-.088.014-.068.012-.091.015-.065.01a2.751 2.751 0 0 1-.155.027 3.828 3.828 0 0 1-.108.018c-.018.004-.03.005-.047.01l-.151.024-.057.01-.097.017-.067.012-.088.014-.069.012c-.027.005-.06.012-.088.016a2.283 2.283 0 0 1-.158.027.971.971 0 0 1-.065.012l-.11.02a.392.392 0 0 0-.041.007l-.154.026-.045.01c-.034.004-.076.012-.11.019l-.058.009-.097.018-.062.01c-.027.006-.068.013-.096.017l-.059.012c-.035.005-.066.012-.102.018l-.052.01-.122.022a.313.313 0 0 0-.034.006 7.716 7.716 0 0 0-.202.037l-.105.02a1.164 1.164 0 0 0-.06.01l-.096.018c-.019.002-.045.008-.062.01l-.095.018-.06.01-.096.019-.061.012-.115.02c-.018.005-.02.005-.036.007-.055.01-.1.02-.155.029l-.042.009c-.034.005-.078.014-.112.02-.018.003-.041.009-.06.011l-.093.018a.96.96 0 0 1-.065.012l-.093.018a1.298 1.298 0 0 0-.062.012l-.095.018c-.019.004-.04.008-.058.01l-.116.023-.037.008-.158.03-.013.002-.14.028a.656.656 0 0 1-.049.009l-.104.02a1.235 1.235 0 0 0-.061.012l-.093.018-.062.012-.091.018c-.024.006-.044.01-.068.013l-.095.02a.68.68 0 0 0-.055.01l-.15.03-.036.007-.12.024-.054.01-.098.02-.064.013-.092.019-.063.011a2.444 2.444 0 0 1-.153.032 2.453 2.453 0 0 1-.105.02l-.05.01a4.387 4.387 0 0 1-.187.039l-.117.024c-.018.004-.036.008-.054.01-.034.009-.068.015-.102.022l-.06.013-.092.018-.064.013-.09.02c-.023.005-.043.009-.066.012l-.095.021c-.019.003-.038.008-.056.01-.04.01-.082.019-.123.027l-.06.013-.122.024-.059.013-.09.019-.07.015-.087.018-.066.015-.088.018c-.023.005-.041.01-.065.013l-.095.02-.058.014-.12.025-.037.007-.144.032-.059.013-.095.02a1.17 1.17 0 0 0-.065.013 2.155 2.155 0 0 1-.088.02l-.064.014a2.231 2.231 0 0 0-.091.02l-.065.014-.09.02-.062.013-.105.023-.061.013-.137.03-.057.013-.09.02-.074.017-.081.018-.07.016a1.506 1.506 0 0 0-.082.018l-.07.016-.088.02-.066.014a1.534 1.534 0 0 1-.082.018l-.125.029a1.748 1.748 0 0 1-.089.02c-.023.004-.048.01-.07.016-.027.005-.053.012-.08.018l-.079.017-.073.017c-.029.007-.048.01-.078.018-.026.006-.048.01-.074.017l-.076.017-.087.02-.061.014-.102.023-.052.012a7.948 7.948 0 0 1-.147.034c-.023.007-.036.01-.06.014l-.087.021-.074.017a1.89 1.89 0 0 1-.082.018 1.333 1.333 0 0 1-.07.017l-.08.019-.072.016-.088.021-.061.015-.1.023c-.019.004-.036.01-.053.013a7.95 7.95 0 0 1-.147.034l-.053.013-.1.023-.06.015-.094.022c-.017.005-.043.01-.06.014l-.09.022-.068.016c-.033.009-.053.013-.087.02a.876.876 0 0 1-.062.016l-.106.025a.466.466 0 0 1-.045.012l-.153.036a.124.124 0 0 0-.023.007 3.51 3.51 0 0 0-.182.044l-.097.023-.06.015-.09.022-.065.016c-.034.007-.057.014-.09.022l-.062.015-.094.022c-.023.007-.035.01-.058.015l-.146.036a.433.433 0 0 0-.04.01l-.114.028a2.8 2.8 0 0 1-.152.038.976.976 0 0 1-.059.015l-.09.023-.065.015a2.492 2.492 0 0 1-.15.038 2.961 2.961 0 0 1-.152.039 4.926 4.926 0 0 0-.148.038l-.043.01c-.034.01-.073.018-.107.027l-.064.016c-.034.01-.056.014-.088.023l-.065.016-.086.022a1.24 1.24 0 0 1-.067.017l-.087.022c-.024.007-.042.01-.064.017-.034.01-.06.016-.092.024l-.059.015-.13.033a3.53 3.53 0 0 1-.167.043 1.125 1.125 0 0 1-.062.017l-.088.023c-.023.005-.043.01-.066.017a1.608 1.608 0 0 0-.085.022 1.065 1.065 0 0 0-.069.018l-.084.021a1.15 1.15 0 0 1-.064.017l-.096.026a5.806 5.806 0 0 0-.198.052l-.007.002a6.358 6.358 0 0 1-.203.053l-.098.026-.057.016a1.921 1.921 0 0 0-.092.024l-.062.016a2.436 2.436 0 0 1-.092.025l-.061.017-.09.023a1.09 1.09 0 0 1-.061.017l-.123.033-.026.007-.148.04-.055.015c-.032.01-.06.017-.095.025-.022.006-.039.012-.061.017l-.089.024c-.023.007-.041.012-.065.017-.027.008-.062.019-.09.025l-.058.017-.095.026a.737.737 0 0 0-.057.016l-.114.03a.384.384 0 0 1-.036.01l-.145.04-.062.017-.09.025-.064.018-.084.022-.068.02-.085.023-.066.019-.087.024c-.017.006-.043.012-.06.017l-.108.03-.043.012a6.172 6.172 0 0 1-.145.04l-.059.017-.09.026-.064.019a1.605 1.605 0 0 0-.085.023l-.072.02-.077.022-.07.02-.086.024-.062.018-.111.031a.384.384 0 0 1-.036.01l-.148.044c-.018.004-.033.009-.05.014l-.1.029-.06.017a3.32 3.32 0 0 0-.153.044l-.088.025-.063.018-.087.026c-.024.006-.04.01-.061.018-.034.01-.08.022-.112.033l-.035.009-.153.044a.153.153 0 0 1-.026.008l-.12.036-.054.015-.095.028-.064.019-.086.026-.061.018-.09.026-.063.018-.09.027-.058.017-.142.042-.057.017c-.033.01-.062.02-.095.029l-.059.018c-.033.009-.056.015-.088.026l-.066.02c-.027.007-.058.018-.086.025l-.065.02-.083.025-.065.02c-.033.01-.06.017-.093.028a.91.91 0 0 0-.056.017l-.143.043-.047.014-.102.031-.058.017-.09.029-.065.02-.084.024-.064.02-.089.027c-.022.006-.039.012-.06.02-.035.009-.066.019-.1.03l-.048.014-.134.041-.056.017-.104.033c-.017.005-.045.013-.062.02l-.086.025a1.23 1.23 0 0 0-.065.021l-.083.026-.07.021c-.02.007-.051.017-.072.022-.027.01-.05.016-.078.025-.026.01-.046.014-.072.022l-.073.024-.122.037c-.017.007-.036.012-.053.017-.034.01-.08.026-.112.037l-.064.02-.086.027-.064.02-.087.026-.057.019-.093.03c-.023.007-.038.011-.061.02l-.094.03-.052.015a2.884 2.884 0 0 1-.18.058l-.113.037-.058.018-.088.027-.065.023a2.21 2.21 0 0 0-.086.027c-.023.006-.04.013-.062.02a2.055 2.055 0 0 1-.149.048l-.09.028a1.034 1.034 0 0 1-.058.02l-.104.034a1.013 1.013 0 0 0-.059.02c-.039.01-.084.026-.125.04l-.068.022a1.905 1.905 0 0 0-.079.026c-.022.008-.05.017-.073.023l-.073.024-.073.024-.077.025-.07.023c-.032.01-.05.016-.082.028l-.061.02-.094.03a6.982 6.982 0 0 1-.196.066l-.066.022-.079.026-.07.023c-.026.01-.051.017-.077.026l-.072.024-.073.024-.075.025-.072.025-.073.025c-.026.007-.06.02-.087.028l-.059.02-.138.047a5.12 5.12 0 0 1-.075.024l-.07.025-.077.025-.07.025-.073.024c-.026.01-.049.016-.075.025l-.074.026c-.02.007-.05.016-.069.024-.022.006-.053.018-.075.026-.026.007-.045.014-.07.023l-.109.037-.107.036-.06.02-.083.03-.071.024-.075.026-.075.026-.07.024c-.026.009-.046.015-.073.026l-.077.026-.07.024-.076.026-.07.025c-.046.016-.093.031-.138.048l-.058.02-.087.031-.068.024-.079.027-.066.023-.08.028-.069.024-.078.028-.066.023-.085.03-.062.022-.14.05c-.017.005-.034.011-.05.018-.033.012-.062.02-.094.033l-.064.023c-.033.01-.05.018-.083.029l-.068.024-.073.026-.077.028-.069.024-.074.026-.08.03c-.022.007-.041.013-.063.023-.046.015-.094.033-.14.049l-.053.02-.091.032a1.364 1.364 0 0 0-.067.025l-.08.028-.063.023c-.026.01-.06.022-.086.03l-.062.024-.084.03-.062.022-.085.032-.062.022-.14.052-.033.012a10.068 10.068 0 0 0-.172.062l-.085.033-.061.02-.086.033-.06.022-.091.034-.055.02-.092.033-.055.021a10.5 10.5 0 0 0-.114.043l-.068.025-.102.038-.069.026-.075.027c-.022.01-.046.018-.068.026l-.078.029a1.48 1.48 0 0 0-.068.026 2.051 2.051 0 0 0-.143.053l-.085.031c-.015.007-.045.017-.062.024a3.453 3.453 0 0 1-.104.039l-.056.022-.123.046a.738.738 0 0 0-.057.022l-.089.032c-.022.01-.041.017-.063.025l-.077.029-.07.027c-.025.01-.057.02-.081.031-.017.005-.042.016-.059.022a2.91 2.91 0 0 0-.096.037l-.048.018c-.04.014-.08.03-.118.046l-.028.01-.14.053-.06.024c-.027.009-.06.022-.085.032l-.062.024-.083.032-.065.025c-.026.01-.053.021-.08.03-.022.01-.044.017-.066.026l-.077.03c-.022.01-.045.018-.067.026a3.191 3.191 0 0 1-.1.038l-.041.017a6.245 6.245 0 0 0-.198.077c-.031.013-.056.022-.087.033-.022.01-.04.016-.063.025l-.08.031a1.023 1.023 0 0 0-.065.026l-.082.032a3.123 3.123 0 0 1-.146.057c-.022.01-.038.016-.06.023l-.108.043-.034.013-.143.058-.045.017-.099.039-.058.023c-.026.01-.058.024-.084.033l-.066.027-.078.031a1.288 1.288 0 0 0-.064.025l-.08.033a1.508 1.508 0 0 0-.067.026l-.076.03-.066.027-.134.053-.064.026-.082.033-.068.027-.071.029c-.028.01-.047.018-.074.03l-.072.028-.069.028-.077.031c-.022.01-.043.018-.065.026l-.085.035c-.022.01-.037.014-.06.024l-.135.056c-.022.007-.036.014-.058.023l-.085.034-.063.026-.08.032-.068.028-.073.031-.07.029-.072.028-.073.03-.074.031-.065.026-.123.051c-.027.012-.046.02-.074.03l-.082.034-.069.029a4.078 4.078 0 0 1-.071.03l-.07.028-.077.033-.066.027-.074.03-.069.03-.074.03c-.02.01-.048.02-.069.029l-.078.032a3.568 3.568 0 0 1-.125.052c-.025.012-.046.02-.072.03a3.388 3.388 0 0 1-.143.06l-.069.03-.074.031-.065.028-.078.032a3.52 3.52 0 0 0-.068.029l-.074.031-.067.029-.08.034-.122.05c-.024.012-.05.021-.074.033-.022.01-.05.02-.071.03-.02.008-.049.02-.067.029l-.077.032-.067.029-.073.031-.068.029-.072.031-.074.031-.069.03-.074.031c-.043.02-.077.034-.121.053a1.96 1.96 0 0 1-.077.033l-.069.029c-.025.012-.048.02-.073.033l-.073.03-.066.03-.074.032a1.46 1.46 0 0 0-.067.029l-.077.032c-.018.01-.05.022-.069.03l-.066.03a3.13 3.13 0 0 1-.185.08l-.094.041-.062.028-.076.032c-.02.01-.047.02-.069.03-.024.012-.05.022-.074.033l-.069.03a1.15 1.15 0 0 1-.07.03c-.026.013-.043.02-.07.032l-.072.031-.07.032a1.79 1.79 0 0 0-.073.032l-.106.047a1.97 1.97 0 0 0-.094.04l-.067.03-.073.033-.072.031c-.018.01-.05.022-.068.031l-.071.032c-.025.011-.044.02-.07.03a1.955 1.955 0 0 1-.075.033c-.018.01-.043.02-.06.029-.023.01-.056.023-.078.034l-.065.029a5.452 5.452 0 0 1-.207.092c-.026.012-.047.02-.073.034-.026.01-.036.015-.062.027l-.081.037a.837.837 0 0 0-.06.027l-.08.035-.058.026-.078.037a1.925 1.925 0 0 0-.14.063c-.019.007-.04.017-.058.025l-.187.085-.023.01-.073.034c-.026.01-.043.02-.069.031a1.87 1.87 0 0 0-.074.034.914.914 0 0 0-.062.029c-.028.011-.052.023-.08.035l-.057.027-.082.037-.057.026c-.026.013-.054.024-.081.037a65.785 65.785 0 0 1-.353.161c-.018.01-.031.017-.05.024l-.081.038c-.019.01-.042.02-.06.027l-.078.037-.059.027a4.292 4.292 0 0 0-.082.038c-.018.01-.034.016-.052.025a2.66 2.66 0 0 0-.089.04c-.011.005-.023.01-.035.017l-.315.146-.05.023a2.22 2.22 0 0 0-.079.038l-.06.027-.075.036-.064.03-.076.036a.993.993 0 0 0-.065.03l-.071.034-.068.031-.073.035-.07.033-.134.064-.061.028a2.105 2.105 0 0 1-.079.037l-.06.028-.076.037-.063.03-.074.035-.069.032-.069.033-.065.031-.076.037-.044.02a8.717 8.717 0 0 1-.221.106l-.078.038-.058.028-.08.038-.056.028-.082.039-.056.027-.079.038-.062.03-.077.037a.518.518 0 0 0-.047.023l-.168.08-.048.024-.077.037-.064.032-.071.034-.065.032-.075.037-.063.03-.073.036-.065.031c-.028.013-.046.024-.073.037l-.08.037-.112.056-.074.037-.073.035-.065.033-.072.035-.065.031-.075.038c-.02.009-.043.02-.061.03l-.075.036-.063.033c-.026.013-.05.023-.076.038l-.052.024-.178.089-.03.015-.084.04-.054.03c-.028.012-.052.024-.078.037l-.06.03-.075.038-.065.032-.071.036-.065.032-.073.037c-.025.013-.05.026-.075.037l-.078.04-.115.058-.058.03a2.221 2.221 0 0 1-.078.039l-.067.034-.069.035-.071.035-.067.034c-.026.013-.041.02-.067.035l-.072.037-.068.033-.07.036-.168.086-.024.011-.074.038-.065.034-.071.036-.064.033-.074.038c-.025.013-.037.02-.062.03l-.075.04-.056.029-.082.041c-.018.01-.026.015-.046.024l-.295.152-.054.027c-.02.012-.053.028-.074.04l-.064.032a2.04 2.04 0 0 0-.074.04 1.306 1.306 0 0 1-.06.03l-.075.038-.059.031c-.031.016-.05.025-.08.042l-.044.022-.312.163-.034.018c-.031.017-.055.029-.086.044l-.05.028a2.383 2.383 0 0 0-.08.041l-.058.03c-.026.015-.052.028-.078.04l-.052.03c-.027.012-.057.03-.084.042l-.045.025c-.104.055-.2.104-.304.16l-.04.021-.09.047-.043.023-.088.047-.05.026c-.025.015-.051.028-.077.042a1.39 1.39 0 0 0-.062.033l-.075.04-.055.029-.08.043a.278.278 0 0 0-.027.014l-.18.096a.961.961 0 0 1-.051.028l-.078.041-.055.029c-.026.014-.053.03-.08.043a1.16 1.16 0 0 1-.056.03l-.079.043-.05.027-.083.044-.052.028-.083.045-.013.007-.216.117-.024.013-.086.047-.05.027c-.026.013-.056.03-.082.045l-.051.027-.08.044-.054.029-.08.044-.056.03-.077.042-.041.023-.186.102a.311.311 0 0 0-.03.015l-.084.046-.048.027-.08.043-.057.032-.078.043-.05.028c-.027.014-.058.031-.083.046l-.052.027-.08.046c-.019.009-.037.02-.055.03l-.145.079a.807.807 0 0 1-.057.031l-.077.043-.056.032-.078.043c-.018.01-.038.022-.056.03l-.073.041-.064.037-.071.039-.061.034-.072.04c-.018.01-.04.023-.059.032l-.135.076-.066.038-.067.037-.064.036-.074.041-.06.034-.077.043-.05.029-.084.047-.048.027-.084.048-.036.02-.207.117-.009.005-.08.044-.054.032a4.448 4.448 0 0 1-.08.045l-.05.029-.08.045-.053.03a1.649 1.649 0 0 0-.08.047l-.049.026-.083.048-.042.024-.29.167-.054.03-.072.041-.063.036-.073.042-.055.031a1.627 1.627 0 0 1-.08.047l-.047.028c-.031.018-.055.03-.086.049l-.035.02a37.63 37.63 0 0 0-.309.18l-.035.019-.087.052c-.012.006-.034.018-.046.026-.025.014-.05.03-.077.044l-.06.035-.071.042-.06.035-.073.042-.052.031c-.066.04-.133.077-.2.116l-.003.003-.078.045-.051.03-.08.047-.053.031-.078.046-.05.03c-.027.015-.054.03-.079.047l-.057.032-.074.044c-.019.01-.034.02-.051.03l-.288.17-.044.027-.084.05-.045.027-.084.05-.046.027a4.717 4.717 0 0 0-.084.049l-.047.029-.083.05-.04.023-.312.186a.274.274 0 0 1-.026.015l-.084.051a.907.907 0 0 1-.047.029l-.083.05a4.717 4.717 0 0 0-.177.108 1.611 1.611 0 0 0-.08.046l-.052.032-.077.046a.792.792 0 0 0-.043.026l-.18.108a.274.274 0 0 1-.025.016l-.086.053a.845.845 0 0 0-.046.028l-.078.047-.053.032-.079.047a1.07 1.07 0 0 1-.05.031l-.08.049a.816.816 0 0 1-.044.027l-.087.053-.006.003c-.07.044-.141.087-.213.13l-.026.017c-.03.018-.059.035-.089.055a.674.674 0 0 0-.04.024l-.087.054-.04.025c-.032.018-.055.033-.085.052-.017.01-.031.018-.048.03a4.455 4.455 0 0 1-.13.079l-.079.048-.058.037-.121.074-.072.045a1.799 1.799 0 0 1-.066.04l-.064.04-.068.043c-.018.01-.044.027-.062.039l-.072.044-.056.035-.073.046-.055.032-.078.05-.045.029c-.05.03-.098.06-.147.092-.019.01-.037.022-.054.033-.026.015-.045.028-.07.044l-.063.039-.069.043-.057.036-.075.047-.055.035-.074.046-.055.035-.073.047-.055.034-.278.176c-.017.01-.026.017-.045.027l-.074.047a2.245 2.245 0 0 0-.129.083l-.057.035-.072.047c-.018.01-.036.022-.053.033-.03.02-.05.031-.08.05a.399.399 0 0 1-.039.025l-.287.185-.046.029-.078.05-.05.032-.076.048c-.023.016-.032.021-.055.035l-.073.047-.053.035-.076.049-.05.032c-.09.057-.183.117-.272.176-.018.01-.035.022-.053.034l-.073.047-.055.035-.074.05-.054.034-.072.046-.055.036-.08.051a.302.302 0 0 1-.033.022l-.289.19c-.017.01-.029.017-.046.03l-.079.051-.047.03-.078.052-.052.034-.074.048a1.171 1.171 0 0 1-.052.034l-.076.05-.05.032-.288.192-.033.02-.08.054-.046.031a2.872 2.872 0 0 0-.082.053.512.512 0 0 1-.045.03l-.08.054-.043.028-.085.056-.036.025-.089.057-.013.01-.21.139-.017.012-.092.062-.031.02-.089.06-.04.027c-.03.02-.055.035-.083.056-.017.012-.024.014-.04.026l-.085.057-.042.027-.085.058-.006.004-.205.138-.028.02c-.029.019-.052.033-.081.054l-.046.03-.08.055-.045.03-.08.053-.046.032-.08.055c-.012.008-.032.02-.042.029l-.082.054-.036.024c-.053.038-.101.069-.154.105l-.055.038-.072.05a1.082 1.082 0 0 1-.05.032l-.077.054-.05.033-.08.055-.04.027-.084.058a.883.883 0 0 1-.038.026l-.408.28a1.247 1.247 0 0 0-.043.03l-.082.056-.04.028-.083.058-.042.028-.085.059-.035.025c-.03.019-.058.04-.087.06l-.026.018-.309.214-.023.016c-.03.021-.059.04-.087.061-.017.012-.024.016-.04.029a1.94 1.94 0 0 0-.085.059l-.035.024-.089.061-.033.023-.424.298-.023.015-.094.067-.028.02-.09.062-.033.025c-.034.023-.059.04-.093.065l-.02.014-.102.072-.005.004-.334.235-.011.01-.092.063-.036.026-.085.06c-.01.008-.026.018-.036.027-.03.02-.053.038-.083.059a.932.932 0 0 0-.043.031l-.082.058-.025.018c-.102.073-.202.143-.302.216l-.03.02-.086.063-.037.025-.085.062-.034.025-.09.064-.031.023-.088.063-.035.026c-.107.075-.207.148-.312.225l-.006.004-.092.067-.034.024-.084.061-.037.028c-.03.02-.055.039-.083.06-.017.011-.024.017-.04.03-.03.02-.055.039-.084.06-.005.003-.026.018-.031.023l-.305.221-.017.013-.091.067-.031.022c-.029.02-.058.043-.086.064l-.035.025a3.77 3.77 0 0 1-.088.065l-.032.023-.087.064c-.006.004-.025.02-.032.023l-.414.306-.027.02-.089.065-.032.025c-.029.02-.057.041-.086.063l-.037.026-.086.066-.023.015-.302.225-.026.02c-.029.02-.056.042-.085.064a.35.35 0 0 0-.035.026c-.028.02-.057.041-.086.064l-.034.026-.086.063-.036.028a3.38 3.38 0 0 0-.08.061c-.012.008-.03.02-.04.029l-.4.3-.036.028a4.493 4.493 0 0 0-.12.09l-.082.062a.943.943 0 0 0-.038.027c-.028.023-.057.043-.084.066l-.027.02-.094.07h-.002l-.313.24-.033.025-.08.061-.041.031c-.029.021-.053.04-.082.063l-.038.029-.08.06c-.01.01-.028.022-.038.03l-.085.065-.017.013-.298.229-.033.024c-.024.019-.058.046-.082.063l-.037.03c-.029.02-.052.039-.081.061l-.042.033-.08.062-.03.022-.092.072-.006.004a50.81 50.81 0 0 0-.314.243l-.023.019a4.806 4.806 0 0 0-.085.066.363.363 0 0 0-.035.027c-.029.021-.055.042-.082.064l-.04.03-.076.06-.044.034-.08.062-.02.016-.306.238a.099.099 0 0 1-.019.015l-.088.07-.03.023-.085.067c-.01.009-.025.02-.035.027l-.082.065a.717.717 0 0 0-.036.029l-.084.065-.03.023-.29.23-.024.019-.084.066-.035.028-.084.066c-.01.01-.023.018-.033.028l-.081.063-.04.032-.08.063-.035.028-.283.225-.027.022-.082.067a.361.361 0 0 0-.035.027l-.081.064a2.059 2.059 0 0 1-.15.121l-.09.071-.018.015-.307.247-.013.01-.086.07-.034.027-.08.065-.038.031c-.029.022-.048.04-.077.061l-.043.036-.078.062c-.01.01-.021.018-.033.027l-.284.23-.026.022-.08.065a.799.799 0 0 0-.037.031l-.08.064a.726.726 0 0 1-.036.03l-.083.068a.583.583 0 0 0-.031.026l-.085.069-.03.024-.404.331-.02.016c-.032.027-.062.05-.093.078l-.02.015-.09.076-.028.022-.09.074-.02.016-.41.34-.019.015-.083.07-.037.03-.082.068a.458.458 0 0 1-.028.024l-.089.074-.02.017a96.302 96.302 0 0 0-.43.358l-.086.074-.029.024-.08.067a.805.805 0 0 1-.038.032l-.082.069-.025.022c-.033.026-.059.05-.091.075l-.003.003-.312.264-.016.013-.086.072-.033.028-.08.068c-.01.01-.024.021-.034.029l-.08.069-.036.03-.082.07-.013.01a64.85 64.85 0 0 1-.303.258l-.015.013a5.793 5.793 0 0 0-.092.08l-.021.018-.087.074-.029.025-.088.074-.021.018-.091.078-.017.015-.309.267-.003.001c-.03.027-.06.05-.09.078l-.027.024c-.027.022-.06.05-.086.074l-.024.02-.09.077c-.01.01-.012.012-.024.021-.03.028-.057.05-.088.077l-.016.014-.303.263-.01.008c-.03.028-.057.05-.088.077l-.027.024a4.387 4.387 0 0 0-.08.07l-.037.031-.077.068-.035.031-.081.07c-.005.004-.014.013-.021.017-.098.088-.194.172-.293.258l-.016.013-.08.072-.037.031-.077.068-.035.03-.078.07-.036.032-.078.068-.03.026c-.093.084-.19.168-.283.25l-.017.016-.086.075-.027.025c-.026.023-.054.047-.08.072l-.035.03a3.827 3.827 0 0 1-.08.07c-.015.014-.017.017-.033.03l-.078.07-.031.028-.292.26-.005.005-.082.073-.033.03a4.022 4.022 0 0 0-.082.073l-.029.025-.083.075-.028.026-.084.074-.023.023c-.134.12-.26.231-.392.351l-.022.02-.08.073-.034.03a2.18 2.18 0 0 0-.108.098c-.03.028-.054.05-.086.077l-.018.019c-.133.12-.27.243-.402.364l-.012.01c-.031.03-.058.055-.09.083l-.022.019a4.501 4.501 0 0 1-.084.078l-.03.026c-.029.029-.052.05-.084.077a.208.208 0 0 1-.017.017c-.132.121-.27.246-.4.367l-.013.011-.086.08-.027.025c-.028.024-.055.05-.081.075l-.031.028-.08.073-.03.029c-.127.117-.261.24-.389.36l-.013.012-.091.084-.017.016-.091.085-.018.017-.09.083-.017.016-.093.087-.002.003-.305.284-.009.009c-.031.028-.055.05-.085.08l-.028.025-.082.078c-.01.01-.016.013-.026.024l-.084.078-.023.022-.089.083-.002.003-.3.283-.014.013-.083.079a.463.463 0 0 1-.026.025l-.081.077-.03.028-.08.076-.025.024a5.128 5.128 0 0 0-.086.081l-.01.01-.393.373-.022.022-.083.08-.026.024-.082.078-.026.026a5.167 5.167 0 0 0-.086.081l-.008.01-.288.275-.02.018-.08.079-.027.026c-.025.024-.054.05-.078.075l-.033.031-.076.073-.033.033-.076.073-.03.028-.37.361a4.953 4.953 0 0 0-.11.105l-.022.023-.082.08-.024.024-.088.085-.007.006-.388.38-.023.024-.079.076-.032.033-.076.074-.03.029-.079.08c-.005.003-.017.015-.022.02l-.376.373-.021.02a4.66 4.66 0 0 0-.082.081l-.028.026c-.024.026-.052.052-.078.078l-.027.028-.083.083-.015.014-.397.395-.088.09-.021.02a5.079 5.079 0 0 1-.085.084l-.02.022-.084.082a.45.45 0 0 1-.025.026l-.372.375a.241.241 0 0 0-.018.018l-.086.086-.02.02-.083.086c-.005.003-.017.015-.022.02l-.086.088-.013.013-.091.092-.004.004-.386.392-.024.025-.081.083a.158.158 0 0 0-.021.02l-.086.088-.014.016-.485.494-.013.015-.084.087-.022.023-.086.088-.01.011-.095.095v.002a58.1 58.1 0 0 0-.394.409l-.008.007c-.034.034-.06.062-.092.096l-.01.01-.09.092-.018.02-.479.5-.01.01-.09.094-.012.013-.583.613-.01.012-.09.094-.012.013-.089.094-.013.014-.48.51-.008.008-.086.091-.02.021-.085.091-.01.013c-.195.206-.39.417-.583.624l-.004.004-.092.099-.01.01-.579.627-.005.006-.092.1-.008.01-.091.098-.007.007-.481.526-.002.003-.095.104-.004.004c-.195.213-.385.423-.58.638l-.002.002-.768.854-.008.01c-.225.25-.442.494-.666.747l-.007.008-.088.1-.01.012c-.125.139-.252.284-.376.424l-.001.001-.087.1-.012.014a5.52 5.52 0 0 0-.085.095l-.015.017-.085.097-.008.008-.466.534-.008.01c-.032.036-.057.063-.088.1l-.01.01-.087.101-.008.008q-.279.32-.557.644l-.014.015-.083.1-.01.008c-.19.22-.368.429-.557.65l-.008.008a6.52 6.52 0 0 1-.083.097l-.017.021-.548.644-.01.011-.085.102-.01.01c-.032.037-.055.067-.087.103l-.005.007c-.125.147-.245.287-.368.436l-.003.002-.087.105-.01.01a6.906 6.906 0 0 1-.084.1.063.063 0 0 1-.012.015l-.085.102-.002.002-.456.545-.014.017-.082.098-.012.014-.084.103-.005.007c-.155.184-.304.365-.459.552l-.001.002-.086.104-.013.016-.085.103v.001l-.453.551-.013.016-.08.099-.013.015a5.515 5.515 0 0 1-.082.1l-.01.014-.354.433-.008.01a5.228 5.228 0 0 0-.08.1l-.015.016c-.026.034-.05.064-.078.097l-.017.022-.08.098-.01.013c-.144.18-.292.363-.437.541l-.018.024-.076.093-.017.021-.08.1-.008.012a91 91 0 0 0-.444.555l-.007.008-.078.099-.02.023c-.025.034-.051.067-.078.1l-.007.01c-.151.188-.295.37-.444.56l-.004.005-.085.107-.008.01-.082.105-.01.013-.44.562c-.005.005 0-.002-.004.003l-.08.103a.207.207 0 0 0-.015.02c-.024.029-.055.07-.077.099a.206.206 0 0 0-.016.02l-.078.098-.009.013-.347.447c-.004.007 0 0-.004.005l-.084.108-.008.01-.082.106-.01.013-.082.107-.001.001-.436.568-.012.016c-.03.039-.05.063-.078.101l-.013.017-.08.103-.008.01-.433.57-.004.005-.082.109-.01.012-.519.686-.005.008c-.03.039-.055.071-.083.11l-.005.007a6.35 6.35 0 0 0-.085.113l-.001.001c-.118.155-.232.31-.35.465v.002l-.083.112-.006.006-.081.11-.008.01-.083.112-.001.003c-.146.194-.286.382-.43.579l-.007.008-.08.11-.007.008q-.299.405-.596.811a.146.146 0 0 1-.013.017l-.076.105-.009.013-.423.579-.003.004-.08.112-.008.01-.078.11-.01.011-.42.584c-.004.005.001-.003-.003.002l-.078.11-.011.017-.076.104-.012.015c-.024.036-.052.075-.078.11l-.001.002-.337.472-.003.002-.08.115-.006.008c-.029.04-.052.071-.08.112l-.007.01-.497.702a.1.1 0 0 1-.01.014l-.075.107-.012.016c-.025.035-.05.074-.075.108l-.007.01-.411.586-.008.01-.076.11-.01.014c-.16.23-.33.473-.49.705l-.01.015-.074.108a.058.058 0 0 0-.01.015l-.076.11-.01.01-.32.467-.006.01-.073.106-.014.02c-.024.036-.047.068-.07.104l-.015.02-.074.108-.005.008c-.138.202-.269.393-.405.595l-.007.01-.075.111-.01.012a8.736 8.736 0 0 1-.075.113l-.007.01-.405.6v.001l-.076.112-.013.02-.073.109-.007.01c-.137.202-.265.395-.4.6l-.005.005-.074.112-.01.015a7.987 7.987 0 0 1-.073.11l-.01.015-.475.716-.011.017-.072.11-.01.014-.072.11-.01.015-.308.47-.01.014-.072.111-.009.014-.073.111-.01.017q-.237.361-.47.724l-.007.009-.077.12v.001l-.397.615-.002.004-.073.114-.01.015a5.154 5.154 0 0 0-.07.109l-.013.02c-.15.236-.31.485-.46.723l-.011.016c-.026.042-.043.07-.07.11a.131.131 0 0 1-.01.019c-.024.036-.048.072-.07.108l-.012.02c-.099.155-.203.32-.3.476l-.008.01a5.22 5.22 0 0 1-.07.111l-.01.018-.07.11a.088.088 0 0 1-.012.018 8.577 8.577 0 0 1-.07.113l-.002.006a97.92 97.92 0 0 0-.386.615l-.005.01-.073.117-.006.01-.073.117-.004.007c-.157.251-.305.49-.46.742l-.006.012c-.181.294-.356.578-.534.87l-.006.009a5.668 5.668 0 0 1-.071.117l-.008.014c-.125.205-.253.414-.376.62l-.002.003-.071.117-.01.015c-.025.043-.044.075-.07.116l-.005.01-.376.626v.001c-.026.043-.05.08-.074.124l-.004.006-.072.121-.005.007-.445.749-.01.015-.068.119-.004.006-.446.755-.005.01-.068.117-.01.017-.435.744-.012.02-.063.112-.012.02-.065.111-.01.02-.28.482-.011.02a4.65 4.65 0 0 0-.063.11l-.014.025-.061.105-.016.029-.064.11-.006.01-.352.618-.017.029-.06.108-.012.02-.066.115-.006.01-.352.623a.228.228 0 0 0-.013.025l-.058.103-.02.035c-.02.038-.037.067-.06.105a.13.13 0 0 1-.01.018l-.349.624-.008.017a4.862 4.862 0 0 0-.064.113l-.011.021-.063.112-.012.021-.35.633-.002.004-.066.12-.01.016-.064.116-.009.019-.064.115-.006.01-.271.497-.013.023-.063.115-.009.017-.063.116-.01.018-.063.117-.004.008-.279.513c-.004.007.001-.001-.003.004l-.062.117-.013.024-.063.115-.006.012c-.115.212-.227.42-.34.633l-.01.02-.06.112a.228.228 0 0 1-.013.024l-.059.11-.014.027-.061.115-.002.002-.272.513-.008.015a4.55 4.55 0 0 1-.058.11l-.016.029-.057.11a.258.258 0 0 1-.014.025l-.058.11a.228.228 0 0 1-.013.024l-.256.489-.015.027-.057.108-.013.027-.058.111-.013.026-.059.112-.01.017-.26.504-.01.017-.055.107-.018.033-.056.109a.227.227 0 0 1-.013.024l-.058.115-.008.015-.263.51-.005.013c-.021.037-.04.075-.06.114l-.012.024-.056.108-.017.034-.056.109-.01.018-.323.638-.01.022c-.02.038-.039.074-.058.114l-.013.024-.057.112-.012.025-.26.513v.004l-.063.124-.007.013-.06.118-.01.022-.057.115-.012.022c-.018.039-.039.078-.058.117l-.004.01-.257.515-.009.017-.06.12-.006.015-.062.125-.003.007q-.163.326-.322.655l-.008.015-.056.112-.016.034a3.942 3.942 0 0 0-.067.137l-.054.11-.01.023-.245.501-.013.026c-.018.04-.032.069-.052.108l-.017.035a3.666 3.666 0 0 0-.05.103l-.019.038-.052.11-.006.011-.248.514-.009.021a8.181 8.181 0 0 0-.069.145l-.052.108a.311.311 0 0 0-.014.03l-.054.11-.014.032c-.063.129-.117.244-.178.373l-.004.008-.046.098a.844.844 0 0 0-.023.05c-.015.028-.033.067-.047.096l-.021.044-.047.101-.018.037-.051.11-.013.024c-.018.04-.035.077-.055.116v.003c-.06.128-.12.252-.18.382a.263.263 0 0 1-.014.028l-.05.105-.017.04-.05.106a.334.334 0 0 0-.014.031c-.018.04-.034.073-.054.112l-.01.024c-.08.169-.159.34-.238.51l-.01.02-.049.109-.018.038-.047.101-.02.043-.048.104-.015.032-.051.112-.004.009-.181.392-.005.011-.051.112-.017.036-.047.104a.557.557 0 0 0-.018.04l-.047.103-.02.042-.048.104-.007.018-.171.375-.01.024-.051.112a.245.245 0 0 0-.014.032l-.05.107-.016.036-.048.107-.018.038c-.014.035-.031.07-.047.104l-.015.036c-.058.125-.112.25-.168.374l-.004.01c-.019.038-.033.07-.051.111a.418.418 0 0 1-.016.035l-.047.106-.018.039c-.014.035-.031.07-.047.105l-.015.037-.05.11-.006.014-.23.52-.013.028a3.93 3.93 0 0 0-.048.108l-.017.036a4.29 4.29 0 0 1-.05.114l-.008.02c-.019.04-.037.084-.055.124l-.003.005-.233.532-.009.02-.05.115-.014.031a2.824 2.824 0 0 1-.063.146c-.017.04-.03.07-.049.11l-.009.023-.165.38-.008.02-.045.104-.019.043a3.33 3.33 0 0 0-.063.147 2.262 2.262 0 0 1-.043.099c-.01.02-.012.029-.021.048a5.48 5.48 0 0 1-.063.145l-.152.355-.01.026c-.015.034-.027.06-.04.095a1.05 1.05 0 0 0-.026.056c-.011.03-.026.061-.037.09l-.025.056-.04.096-.02.046c-.016.035-.03.072-.046.105l-.01.028c-.072.166-.143.336-.214.504-.006.013-.011.028-.018.041-.012.029-.03.07-.041.1a.767.767 0 0 1-.021.048c-.015.035-.026.065-.042.099l-.02.048-.043.1a.376.376 0 0 1-.016.04l-.213.508-.01.025-.046.112-.015.036-.043.105c-.007.013-.015.033-.02.046l-.043.103-.014.034-.048.116-.167.402a.123.123 0 0 1-.008.02c-.015.04-.03.073-.047.113l-.013.034-.047.115-.013.03-.045.11a.373.373 0 0 1-.017.04l-.044.11-.006.012-.155.38-.014.038-.043.104-.017.043-.041.103c-.007.013-.015.032-.02.045l-.042.103-.017.043-.041.104c-.007.013-.012.029-.018.042l-.14.349-.018.043c-.013.035-.025.062-.04.096l-.02.055-.039.096c-.005.015-.016.038-.02.051l-.04.098-.02.05-.04.102-.015.038-.142.357-.016.039-.039.097-.02.054a2.881 2.881 0 0 0-.037.093 1.075 1.075 0 0 0-.024.058l-.037.095-.02.05a5.535 5.535 0 0 0-.04.1l-.016.043-.135.343-.02.051-.039.1-.02.049a3.192 3.192 0 0 1-.04.102l-.017.046a3.288 3.288 0 0 0-.039.1l-.02.052-.04.1-.015.041-.138.354c-.006.014-.01.03-.016.043a2.982 2.982 0 0 0-.038.098l-.02.05a2.12 2.12 0 0 1-.038.098l-.02.054a3.298 3.298 0 0 0-.039.1l-.017.043-.04.108c-.007.013-.01.026-.016.039l-.133.345-.02.055-.032.082-.027.071a2.38 2.38 0 0 0-.033.088c-.008.02-.017.041-.024.062-.01.03-.023.06-.034.09l-.022.06-.037.095-.02.053-.037.097-.014.039-.082.216-.013.035-.037.096-.02.056c-.013.03-.024.062-.035.091l-.024.066c-.012.028-.023.06-.034.088l-.022.059c-.01.03-.024.065-.036.095l-.02.054-.037.1-.01.027-.09.24a.098.098 0 0 0-.007.02l-.039.104-.018.047c-.01.03-.026.072-.038.102l-.02.052a2.63 2.63 0 0 1-.033.092l-.023.065-.034.09-.021.059-.035.092-.019.05-.078.215-.011.028-.037.102-.018.05-.035.096-.022.06-.034.092-.021.057-.035.095-.022.06-.034.094-.017.046-.087.242-.002.004-.035.096-.02.057-.035.094-.022.061c-.01.03-.02.06-.032.089l-.024.065-.03.09-.026.066c-.007.024-.022.061-.03.085l-.023.065-.118.332-.02.053-.033.091-.023.066-.031.088-.022.063-.033.092-.023.064a1.762 1.762 0 0 1-.032.088 1.51 1.51 0 0 1-.024.07l-.04.117c-.014.035-.028.076-.041.112l-.03.087c-.008.02-.017.045-.023.066l-.032.089-.024.068-.03.083c-.008.027-.015.044-.025.073l-.03.084-.022.067-.031.088-.024.068-.034.096-.048.138c-.008.024-.013.037-.02.062-.011.027-.024.063-.033.092a2.863 2.863 0 0 1-.028.078c-.006.021-.02.056-.026.077l-.028.083-.025.068-.03.089-.025.071-.028.082-.025.074-.029.082-.039.114-.035.103-.03.085-.026.08-.027.077-.026.077-.028.082-.026.075a3.22 3.22 0 0 1-.028.083l-.025.072-.027.083c-.01.024-.019.054-.028.078l-.03.089-.041.125-.03.089-.025.071-.029.087-.024.075-.028.08-.026.077-.028.084-.025.074-.026.08-.028.079-.024.075-.054.16c-.007.021-.014.045-.022.065l-.028.088-.024.071-.026.077-.027.085c-.01.023-.017.05-.025.073-.01.028-.018.056-.029.084l-.023.074-.027.084-.026.075-.04.12-.023.072-.038.114-.023.072c-.01.029-.018.057-.029.086a5.32 5.32 0 0 0-.024.077l-.026.08-.025.076-.029.087c-.008.024-.014.046-.023.07l-.029.089-.022.07-.035.106-.029.091-.036.112-.024.07-.027.088-.024.072-.027.086-.025.075-.027.086c-.008.024-.016.046-.022.07l-.03.091-.022.07-.034.106-.018.058a6.464 6.464 0 0 0-.047.147l-.02.06-.03.098-.023.07-.029.089c-.008.025-.014.044-.02.069l-.032.095-.02.065-.032.102a5.6 5.6 0 0 0-.06.19l-.008.024-.05.158a4.728 4.728 0 0 0-.05.159c-.006.025-.01.038-.018.061-.012.035-.02.067-.031.102l-.021.062-.03.097-.02.065-.03.1-.02.06c-.012.041-.028.088-.04.131l-.009.025a7.541 7.541 0 0 1-.065.211 5.04 5.04 0 0 1-.053.174c-.01.03-.02.062-.027.09l-.024.073-.029.093c-.005.02-.014.047-.02.065l-.03.101-.017.058c-.013.043-.028.087-.04.13l-.01.03c-.017.056-.031.105-.05.161a.283.283 0 0 1-.008.031l-.04.128-.016.056-.032.104a1.135 1.135 0 0 1-.02.063l-.029.101-.018.059a10.727 10.727 0 0 0-.05.165l-.037.127-.01.028-.05.164-.004.021-.043.143-.013.042-.034.116c-.007.018-.012.038-.017.056l-.034.11-.014.051c-.012.037-.024.08-.034.115-.007.018-.01.03-.014.048-.013.043-.03.094-.04.137a.138.138 0 0 0-.009.025l-.05.165-.003.013-.044.15-.01.032a5.288 5.288 0 0 0-.038.134l-.012.037-.037.129-.011.039-.038.127c-.003.012-.008.026-.01.038l-.145.496-.008.026-.039.134a4.217 4.217 0 0 1-.048.167l-.013.046-.034.12-.013.044-.04.14-.007.021-.094.33-.011.039a4.37 4.37 0 0 1-.035.123l-.015.054-.032.113-.015.05c-.009.035-.022.078-.03.113l-.017.054-.035.123a.298.298 0 0 1-.01.036l-.093.332-.009.031-.035.128-.015.055-.032.112-.014.05-.033.118-.013.045-.037.136-.008.027c-.031.116-.061.22-.093.336l-.005.018-.04.147-.01.036c-.011.043-.024.085-.036.128-.002.013-.008.03-.01.04l-.035.128a.588.588 0 0 0-.01.04l-.042.15-.003.01-.094.343v.004l-.043.158-.01.036-.035.132a.592.592 0 0 1-.01.039l-.036.127-.009.04-.038.14-.006.024c-.032.115-.061.224-.091.34l-.002.005-.043.16-.008.031-.035.133-.011.04c-.01.043-.023.086-.034.13l-.01.038-.038.145-.006.017-.132.509-.007.027c-.012.043-.026.095-.036.138l-.01.038-.035.131-.009.035c-.012.045-.026.098-.036.142l-.007.025-.131.51-.005.019-.038.147-.008.031-.035.136-.01.036-.036.146-.005.018-.13.513-.004.016-.04.156-.003.018a8.324 8.324 0 0 0-.038.149l-.006.027a8.538 8.538 0 0 0-.038.151l-.004.017a74.09 74.09 0 0 0-.129.516l-.003.01-.039.158-.005.024c-.012.043-.025.1-.036.145l-.007.03a4.922 4.922 0 0 0-.036.146l-.005.022-.127.515-.001.008-.04.164-.003.015-.04.156-.003.018c-.014.059-.025.1-.038.159l-.004.012-.165.691-.004.017a6.47 6.47 0 0 1-.036.152.124.124 0 0 1-.006.024l-.036.156-.003.013-.123.522-.04.172-.003.012c-.013.058-.022.1-.037.159l-.004.018-.037.164-.002.004-.2.87-.004.02-.037.16v.007c-.069.294-.132.58-.199.875l-.001.01-.038.17-.001.002-.194.882-.002.001c-.152.7-.3 1.39-.447 2.093a21.333 21.333 0 0 0 41.76 8.743C86.839 124.742 155.142 64 234.667 64a21.333 21.333 0 0 0 0-42.667z" style="fill:#c0f9db"/>
            <path d="M447.999 255.23v-.28l-.002-.104v-.384c0-.031 0-.061-.002-.094v-.097c0-.031 0-.06-.002-.093V253.886l-.002-.093v-.096l-.001-.1-.002-.093-.001-.095v-.097l-.001-.097-.002-.094v-.191c-.002-.032-.002-.07-.002-.1-.002-.03-.002-.062-.002-.092v-.096c-.002-.033-.002-.065-.002-.098l-.001-.096-.002-.094-.001-.095-.001-.098c-.002-.03-.002-.065-.002-.096l-.001-.094c-.001-.031-.001-.065-.003-.096v-.096l-.002-.097-.001-.095c-.002-.031-.002-.062-.002-.094l-.002-.099c0-.039 0-.056-.002-.095l-.001-.093c-.001-.033-.001-.065-.003-.097v-.096l-.002-.095c-.001-.035-.001-.067-.003-.1l-.001-.089-.003-.101-.001-.094c-.001-.03-.001-.063-.003-.093v-.097a2.514 2.514 0 0 1-.004-.1c0-.03 0-.06-.002-.09l-.001-.107c-.002-.024-.002-.059-.003-.082 0-.035-.001-.07-.003-.103v-.094c-.002-.031-.004-.062-.004-.095 0-.031 0-.061-.002-.092l-.003-.106-.002-.086c0-.039-.002-.075-.003-.113l-.001-.077-.004-.116-.001-.077-.004-.122-.002-.066-.004-.142v-.05l-.013-.38c0-.031 0-.066-.002-.098 0-.032-.001-.062-.003-.095l-.002-.083-.003-.108c-.001-.031-.003-.05-.003-.082l-.004-.11c0-.03 0-.057-.002-.088l-.004-.099c0-.032-.001-.062-.003-.094l-.004-.1c0-.023 0-.059-.002-.082-.001-.036-.003-.073-.003-.11l-.004-.077c0-.038 0-.076-.004-.114 0-.023 0-.058-.002-.083l-.004-.103c0-.031-.001-.064-.003-.095l-.004-.098c0-.03 0-.058-.002-.09l-.004-.1-.004-.087-.004-.107-.003-.082-.003-.104-.004-.091-.004-.102-.003-.086-.005-.104-.003-.087-.004-.104-.003-.087-.004-.1-.004-.093-.004-.1-.004-.088a2.823 2.823 0 0 0-.005-.101l-.004-.089-.004-.104-.004-.086-.004-.1-.004-.094-.005-.095-.004-.095-.004-.095a2.22 2.22 0 0 0-.005-.092l-.004-.1-.004-.093-.005-.091-.004-.1-.005-.094-.004-.093-.005-.096-.004-.095-.005-.098-.004-.091a2.252 2.252 0 0 1-.006-.096c0-.032-.002-.063-.005-.094a2.567 2.567 0 0 0-.005-.1l-.004-.088-.005-.102a1.961 1.961 0 0 0-.005-.088l-.005-.104-.004-.086-.006-.099c0-.031-.003-.061-.005-.092l-.005-.102-.005-.086-.005-.112c-.003-.031-.003-.045-.004-.077-.003-.04-.006-.076-.007-.117l-.005-.073-.005-.11-.005-.08-.007-.13-.004-.059a36.748 36.748 0 0 0-.022-.377l-.005-.103-.005-.086-.007-.102a2 2 0 0 0-.005-.088 2.08 2.08 0 0 0-.005-.09 2.394 2.394 0 0 0-.007-.099 2.22 2.22 0 0 0-.005-.092l-.005-.097-.007-.09-.005-.1a2.085 2.085 0 0 0-.007-.09c0-.031-.003-.067-.005-.099l-.005-.084-.008-.107-.005-.083a2.779 2.779 0 0 0-.006-.105l-.006-.09a2.334 2.334 0 0 1-.006-.096l-.007-.099a2.07 2.07 0 0 0-.006-.09l-.005-.093a2.592 2.592 0 0 1-.007-.097l-.006-.092-.007-.098-.006-.09a2.443 2.443 0 0 0-.007-.097 2.315 2.315 0 0 0-.006-.095l-.007-.095-.005-.089-.008-.1c-.001-.031-.004-.061-.007-.093 0-.032-.003-.06-.006-.092a2.535 2.535 0 0 0-.007-.1c0-.03-.003-.058-.006-.088a2.661 2.661 0 0 0-.007-.101l-.006-.087a2.443 2.443 0 0 1-.007-.098c-.002-.031-.005-.061-.006-.093l-.008-.096a2.191 2.191 0 0 0-.006-.092 2.525 2.525 0 0 1-.007-.095c-.003-.033-.005-.06-.006-.092l-.008-.1-.007-.088-.008-.097-.006-.095a2.33 2.33 0 0 0-.008-.095l-.006-.09a2.386 2.386 0 0 0-.008-.097l-.007-.089c-.002-.039-.005-.064-.008-.103-.002-.027-.003-.056-.006-.083l-.008-.103-.006-.088a6.607 6.607 0 0 0-.015-.187l-.009-.1c-.001-.03-.004-.057-.006-.087l-.008-.103a2.008 2.008 0 0 1-.007-.085l-.009-.1-.006-.09c-.002-.032-.007-.07-.008-.101l-.008-.081c-.001-.03-.005-.074-.008-.105l-.006-.077-.01-.114a1.046 1.046 0 0 1-.005-.063l-.01-.123c-.003-.023-.004-.048-.006-.071l-.01-.118c0-.017-.003-.036-.005-.054l-.01-.132-.004-.039-.056-.652-.005-.055c-.004-.045-.01-.1-.013-.146a.366.366 0 0 1-.003-.037l-.012-.12a3.204 3.204 0 0 0-.016-.178 1.618 1.618 0 0 1-.006-.08l-.01-.106-.007-.082a2.965 2.965 0 0 1-.01-.106l-.007-.08c-.004-.031-.006-.067-.009-.097a2.51 2.51 0 0 1-.009-.094l-.008-.09a2.205 2.205 0 0 1-.009-.096l-.009-.094a2.268 2.268 0 0 0-.009-.094c-.003-.03-.005-.065-.01-.096l-.007-.087-.01-.103a1.742 1.742 0 0 1-.008-.086l-.01-.098c-.002-.03-.004-.06-.008-.09l-.01-.097-.007-.089-.01-.1-.009-.085-.01-.101-.008-.089-.01-.096-.008-.089a2.371 2.371 0 0 1-.01-.1l-.01-.087-.009-.1a1.76 1.76 0 0 1-.009-.083l-.01-.106-.008-.082a3.066 3.066 0 0 1-.01-.103l-.01-.082-.01-.104-.01-.088-.01-.096a2.102 2.102 0 0 0-.009-.09l-.009-.098-.01-.09c-.004-.037-.005-.058-.01-.096a1.912 1.912 0 0 1-.008-.086l-.01-.103a2.037 2.037 0 0 1-.01-.083l-.01-.101-.01-.084c-.003-.039-.007-.066-.011-.104-.003-.027-.005-.057-.01-.085a2.9 2.9 0 0 0-.01-.1l-.009-.084a2.755 2.755 0 0 1-.01-.103l-.01-.086a2.878 2.878 0 0 0-.011-.1l-.01-.086-.01-.1-.01-.09a2.649 2.649 0 0 1-.01-.094l-.01-.089c-.003-.03-.009-.068-.011-.099l-.01-.085a3.027 3.027 0 0 1-.011-.101l-.01-.077-.01-.11a1.634 1.634 0 0 0-.01-.075l-.012-.11-.01-.085-.01-.1-.012-.1-.01-.085-.016-.134a4.823 4.823 0 0 0-.027-.237l-.008-.066c-.004-.039-.01-.08-.013-.12a3.158 3.158 0 0 1-.013-.11l-.01-.073a3.651 3.651 0 0 0-.014-.118c-.003-.024-.004-.043-.008-.067a2.984 2.984 0 0 0-.022-.187l-.012-.102-.01-.083a2.481 2.481 0 0 0-.012-.103l-.01-.083-.012-.098-.01-.089-.012-.097a1.78 1.78 0 0 1-.01-.087l-.013-.097-.01-.09-.013-.096a1.824 1.824 0 0 1-.01-.088c-.004-.03-.01-.065-.013-.097a2.326 2.326 0 0 0-.01-.088c-.006-.038-.008-.061-.013-.1a1.807 1.807 0 0 0-.01-.084l-.013-.1-.011-.086a2.499 2.499 0 0 0-.012-.098l-.012-.09c-.002-.022-.007-.067-.011-.09l-.012-.094-.012-.097-.012-.086-.013-.1a1.82 1.82 0 0 0-.01-.083l-.013-.103-.01-.082-.013-.102-.012-.082-.013-.104-.01-.082-.014-.1-.011-.089c-.004-.03-.01-.064-.013-.093l-.012-.093-.012-.09-.013-.095-.013-.093-.011-.088-.013-.097-.012-.085c-.004-.04-.008-.064-.013-.102l-.012-.083-.013-.099-.012-.087-.013-.1-.011-.084-.015-.097-.011-.088-.013-.099c-.004-.028-.01-.058-.013-.087l-.013-.094-.012-.09a2.935 2.935 0 0 0-.014-.098 1.505 1.505 0 0 0-.01-.076l-.015-.108c-.004-.025-.008-.048-.01-.074-.007-.038-.01-.073-.016-.111a1.311 1.311 0 0 1-.01-.07l-.016-.112-.01-.067-.018-.12-.003-.03-.023-.153a.374.374 0 0 0-.005-.038l-.036-.258-.037-.25a2.74 2.74 0 0 1-.015-.103l-.012-.083a2.8 2.8 0 0 0-.014-.095l-.013-.088c-.004-.03-.01-.064-.013-.094-.006-.03-.01-.061-.015-.091l-.014-.1-.012-.081-.014-.097-.014-.09a2.005 2.005 0 0 0-.013-.087 2.46 2.46 0 0 0-.015-.096 2.035 2.035 0 0 0-.013-.087l-.014-.098c-.005-.03-.01-.06-.013-.091l-.014-.09-.015-.095-.014-.09a2.889 2.889 0 0 0-.027-.18l-.015-.099-.014-.087c-.005-.038-.01-.061-.014-.099-.004-.027-.01-.054-.013-.082-.005-.038-.01-.064-.016-.101l-.013-.084c-.005-.037-.009-.06-.016-.097-.003-.028-.009-.059-.013-.086a2.271 2.271 0 0 0-.014-.093l-.014-.095-.015-.09-.014-.088a2.954 2.954 0 0 1-.014-.097l-.014-.09-.016-.092a2.133 2.133 0 0 0-.014-.09 2.21 2.21 0 0 0-.015-.09 2.397 2.397 0 0 1-.014-.096l-.014-.088a2.13 2.13 0 0 1-.015-.09l-.015-.095a2.15 2.15 0 0 1-.015-.09 2.19 2.19 0 0 1-.014-.091l-.016-.094-.014-.087-.016-.1-.014-.085a2.133 2.133 0 0 1-.014-.09l-.016-.095-.015-.09a2.21 2.21 0 0 0-.015-.091l-.015-.094-.015-.088-.015-.093-.016-.092c-.004-.028-.01-.058-.013-.085l-.017-.099-.016-.09c-.003-.03-.009-.058-.014-.088a2.251 2.251 0 0 0-.017-.1l-.014-.084c-.005-.034-.01-.068-.017-.101l-.013-.08-.017-.099-.014-.086-.016-.092-.016-.09-.015-.094-.016-.088a2.932 2.932 0 0 0-.018-.106l-.013-.075-.02-.116-.011-.067a8.027 8.027 0 0 0-.03-.173l-.002-.008c-.03-.182-.063-.367-.095-.55-.005-.021-.005-.028-.009-.05l-.023-.131-.01-.054-.023-.129-.01-.06-.022-.122-.013-.074a3.56 3.56 0 0 1-.018-.104l-.016-.085-.018-.1-.013-.073-.02-.11-.013-.073-.02-.108-.014-.078-.018-.104-.014-.078-.02-.105-.013-.07-.02-.111-.014-.075-.02-.108c-.003-.022-.008-.052-.013-.074l-.02-.107-.014-.077-.02-.106-.013-.07-.02-.114-.014-.069a3.343 3.343 0 0 0-.02-.112l-.013-.069-.021-.11-.013-.075-.021-.108-.013-.071-.021-.109c-.006-.03-.01-.046-.014-.076-.007-.033-.015-.07-.02-.103a1.468 1.468 0 0 1-.015-.081l-.02-.099a1.795 1.795 0 0 0-.016-.082l-.018-.102a1.596 1.596 0 0 1-.015-.076 3.088 3.088 0 0 0-.021-.108l-.013-.072-.022-.11-.013-.072-.021-.105c-.005-.03-.01-.049-.016-.079l-.02-.104a1.492 1.492 0 0 1-.014-.074l-.022-.111a1.35 1.35 0 0 0-.014-.07l-.021-.11a1.395 1.395 0 0 0-.014-.071l-.021-.108-.015-.075-.023-.115-.012-.062c-.007-.041-.017-.083-.024-.125a19 19 0 0 1-.035-.177l-.014-.061c-.006-.039-.015-.08-.023-.118l-.012-.063a4.302 4.302 0 0 0-.028-.138l-.008-.04-.03-.151a.249.249 0 0 0-.007-.03l-.221-1.089a.339.339 0 0 0-.008-.035l-.03-.147-.006-.03-.032-.15-.007-.039-.03-.143a.364.364 0 0 0-.008-.037l-.029-.142a.534.534 0 0 1-.009-.044l-.03-.14-.008-.037-.03-.14-.01-.049-.027-.133c-.003-.014-.008-.033-.01-.049l-.028-.126-.012-.059-.027-.125-.01-.053c-.01-.04-.019-.085-.028-.125-.003-.015-.01-.043-.012-.059l-.026-.12-.014-.063-.023-.114-.016-.067-.025-.116-.013-.063-.025-.114-.014-.067-.026-.116-.013-.062-.026-.117c-.002-.015-.01-.046-.013-.062l-.027-.122a.82.82 0 0 0-.012-.055l-.027-.122-.012-.06c-.01-.04-.02-.082-.027-.122l-.013-.056-.028-.125-.011-.052-.03-.135-.01-.043-.03-.135-.01-.046-.031-.138a.453.453 0 0 0-.01-.04l-.03-.138-.01-.042a5.82 5.82 0 0 0-.032-.145l-.007-.032-.033-.15-.007-.03-.035-.154-.007-.024a7.202 7.202 0 0 0-.036-.161l-.004-.017c-.013-.057-.026-.119-.04-.175v-.004q-.309-1.355-.633-2.7l-.001-.007a8.534 8.534 0 0 1-.042-.175l-.043-.177-.001-.007c-.015-.059-.03-.115-.043-.173l-.002-.008a8 8 0 0 0-.041-.17l-.003-.011-.042-.17-.001-.006c-.014-.057-.027-.116-.042-.173l-.002-.008c-.015-.057-.028-.116-.042-.173l-.001-.004-.043-.172-.003-.011-.042-.168v-.01l-.044-.17-.001-.01-.043-.171-.001-.005-.043-.17-.003-.011a29.938 29.938 0 0 0-.043-.173v-.002a8.875 8.875 0 0 1-.044-.177c-.003-.008 0 .004-.002-.002l-.09-.357v-.002a249.084 249.084 0 0 0-9.84-30.54 21.334 21.334 0 0 0-39.679 15.686A210.693 210.693 0 0 1 405.333 256c0 58.336-23.231 112.854-63.738 149.573a21.334 21.334 0 0 0 28.608 31.656 224.678 224.678 0 0 0 21.294-22.144l.006-.006c.283-.34.573-.684.855-1.026l.012-.014.095-.116.017-.02.092-.111.018-.022.627-.76.008-.013.093-.113.02-.023.086-.107.027-.031c.03-.04.055-.068.086-.106a.299.299 0 0 0 .018-.025 8.67 8.67 0 0 0 .093-.113l.009-.01c.173-.212.342-.42.514-.634l.016-.02.086-.107.027-.032.085-.106c.006-.009.015-.02.023-.028.03-.04.055-.07.086-.108l.02-.025c.03-.038.06-.076.092-.113l.007-.01.415-.518.003-.002c.03-.04.057-.073.088-.112l.025-.03.08-.102a.424.424 0 0 0 .03-.038c.027-.032.053-.066.079-.099.013-.015.018-.023.03-.039.027-.032.053-.066.079-.099.01-.013.02-.023.029-.036l.082-.103.022-.027.373-.474c.01-.013.025-.03.034-.043l.073-.093.038-.048a2.29 2.29 0 0 0 .069-.089l.042-.052.07-.088c.012-.016.026-.035.039-.05.02-.028.048-.062.069-.09l.04-.049.072-.094.03-.037.078-.102.013-.016.173-.221.026-.034.072-.092c.012-.016.023-.032.036-.047l.07-.089a.87.87 0 0 1 .042-.054c.021-.03.042-.055.064-.084l.046-.058.064-.082.045-.06.064-.084a3.661 3.661 0 0 0 .11-.14l.045-.06a3.49 3.49 0 0 0 .064-.082c.017-.022.03-.042.048-.063l.11-.143a2.51 2.51 0 0 1 .054-.07l.064-.083.044-.058.066-.087.043-.056.062-.08.05-.067c.017-.022.04-.054.059-.076l.05-.066.058-.077.05-.065.06-.08.05-.065.057-.075.062-.08c.034-.045.06-.082.095-.126.02-.026.039-.05.057-.077.022-.027.035-.044.056-.073l.052-.069.056-.074c.02-.026.035-.047.055-.071.02-.029.032-.045.054-.073l.054-.072.053-.07.059-.078c.017-.022.032-.045.05-.067l.063-.083.043-.059.076-.1.035-.045c.035-.049.073-.098.108-.146l.01-.013.097-.13.039-.053.071-.095c.012-.017.029-.037.04-.056.025-.03.046-.06.07-.09l.04-.054.069-.094.042-.056.07-.094.036-.05.073-.1.038-.05.083-.11a.559.559 0 0 1 .025-.035c.038-.05.07-.096.108-.147l.015-.02.093-.127.037-.05c.023-.03.047-.062.07-.095l.044-.06.066-.088.041-.057.068-.093.039-.053a4.708 4.708 0 0 0 .11-.149l.072-.101.034-.046.093-.126.014-.02.217-.3c.01-.01.022-.03.032-.04l.075-.105.038-.053.071-.1c.013-.016.023-.028.034-.046.024-.031.051-.07.075-.103l.035-.048.075-.104c.008-.012.024-.033.031-.045l.079-.108.03-.041c.036-.05.069-.094.102-.144l.003-.002c.073-.1.147-.205.219-.306.009-.01.011-.016.02-.028l.085-.12a.874.874 0 0 0 .031-.042l.079-.11.03-.041.075-.107c.013-.017.02-.029.034-.046l.078-.11a.708.708 0 0 1 .027-.038l.085-.12.022-.031.324-.457.015-.021.09-.13.026-.034c.027-.04.054-.078.083-.117l.025-.037.082-.116.026-.037.086-.123.02-.027.09-.13.016-.024c.108-.153.219-.311.325-.466.004-.005-.002.005.002-.001l.101-.146c.01-.012.013-.018.021-.03.03-.043.057-.08.086-.124l.022-.031c.028-.039.059-.083.086-.124l.021-.03.09-.13.015-.022.1-.144.006-.008.43-.625.013-.019c.03-.046.062-.09.093-.138l.013-.018.097-.14.009-.015.101-.148.004-.005.535-.788.012-.017.094-.14a.147.147 0 0 0 .013-.018l.095-.142.01-.014.102-.152.001-.001.534-.797.004-.006.103-.155.002-.003.105-.157v-.004c.214-.32.424-.638.636-.96l.004-.004.102-.157.002-.004a245.872 245.872 0 0 0 36.258-91.806c.002-.006-.001.004 0-.004.097-.539.19-1.074.283-1.614l.001-.005.034-.2c.059-.338.115-.674.17-1.013l.002-.006.032-.193.003-.014.03-.185.003-.017c.01-.06.022-.13.03-.189l.002-.01c.056-.339.11-.67.164-1.01l.003-.012.028-.186.004-.02.029-.18a.143.143 0 0 0 .003-.023l.03-.184.002-.014.156-1.01.003-.015c.01-.058.018-.123.027-.183l.004-.022.028-.181.002-.02.03-.193v-.004c.052-.34.102-.674.151-1.015l.003-.015.027-.186.003-.02.026-.18.004-.022c.007-.059.018-.127.026-.187l.002-.013c.04-.273.077-.54.116-.813v-.004c.01-.064.018-.13.027-.194l.004-.022.025-.183.003-.018c.007-.059.017-.124.026-.184l.002-.02.026-.19.002-.01.11-.816.002-.005c.007-.064.016-.127.024-.19a.236.236 0 0 0 .004-.03c.01-.06.016-.114.024-.174l.004-.028.023-.173a.271.271 0 0 1 .004-.03l.023-.179.003-.02.026-.198v-.002c.026-.205.052-.407.08-.613v-.016l.024-.182.004-.033c.008-.056.014-.11.02-.166a.33.33 0 0 0 .006-.038l.02-.164.005-.038.022-.176a.114.114 0 0 0 .003-.02l.024-.196v-.005l.076-.613.002-.018c.007-.06.015-.118.021-.179.003-.014.003-.022.005-.038l.02-.164a.468.468 0 0 1 .005-.039c.005-.052.013-.112.02-.164.001-.014.001-.02.004-.036l.02-.172a.213.213 0 0 1 .003-.029l.023-.192v-.007l.072-.612a.16.16 0 0 1 .003-.025c.006-.06.011-.11.02-.172 0-.014.002-.03.004-.044l.017-.155c.003-.015.004-.032.006-.048l.018-.155a.484.484 0 0 1 .005-.046l.018-.164a.269.269 0 0 1 .004-.033l.021-.188.001-.013.045-.41v-.01l.022-.187.004-.043a5.632 5.632 0 0 0 .023-.21c.004-.046.01-.098.016-.147l.005-.053.015-.146.006-.056.017-.15c0-.016.002-.033.005-.049.005-.06.012-.116.018-.176l.001-.022.043-.407.002-.02.018-.178.005-.047c.005-.047.01-.104.016-.151a5.034 5.034 0 0 0 .02-.203l.004-.054.016-.15.005-.05.016-.163.004-.035.018-.185.001-.017.04-.41v-.013c.007-.061.014-.126.019-.188l.004-.035.014-.164c.003-.015.004-.031.005-.045.006-.052.01-.107.015-.16l.004-.044.015-.158.004-.045.014-.162c.003-.016.003-.024.004-.04.006-.06.01-.118.017-.18l.002-.02.037-.409.002-.026.015-.173.004-.047.015-.15a.97.97 0 0 1 .005-.062l.011-.14.006-.06c.004-.047.007-.097.013-.144l.004-.058.013-.151.005-.049.014-.173a.195.195 0 0 1 .003-.027c.01-.134.022-.271.034-.405l.002-.04c.005-.057.01-.106.013-.162l.005-.05.012-.148a.97.97 0 0 1 .005-.061l.012-.143.004-.059.012-.143.005-.059c.002-.048.008-.104.012-.152l.003-.048c.004-.058.01-.117.013-.175l.003-.026.031-.406.003-.043.013-.158c0-.015.003-.037.004-.053a5.58 5.58 0 0 1 .015-.21l.01-.139.005-.061c.004-.048.008-.096.01-.145.001-.015.004-.041.004-.057l.012-.16a.369.369 0 0 0 .002-.038c.006-.061.01-.126.015-.187l.001-.016.029-.409.002-.036.012-.167a.63.63 0 0 1 .003-.05l.01-.147.004-.065.01-.138.004-.063.01-.14.003-.062.01-.149a.733.733 0 0 0 .003-.053l.012-.176.003-.023c.004-.07.007-.137.013-.207 0-.008-.002.005 0-.003.004-.065.007-.133.013-.198 0-.015 0-.03.002-.045l.01-.155.003-.059.01-.142.003-.066.008-.137.004-.065a5.1 5.1 0 0 0 .01-.14l.003-.062c.003-.048.005-.103.01-.151a.63.63 0 0 1 .002-.05l.01-.182.001-.02.024-.406a.77.77 0 0 0 .002-.054l.01-.146c0-.016.002-.05.004-.066l.006-.135.004-.07.008-.135.004-.067.006-.136.004-.067.008-.14a.963.963 0 0 0 .002-.062l.01-.173a.193.193 0 0 0 0-.027c.005-.07.009-.134.011-.205a.173.173 0 0 0 .002-.026c.004-.056.006-.118.009-.175l.004-.056c0-.049.004-.095.006-.144l.004-.069c.001-.048.004-.084.007-.132 0-.024 0-.05.002-.073l.007-.132.004-.069.006-.138.003-.065a5.666 5.666 0 0 0 .009-.2l.009-.18v-.024l.009-.204a.21.21 0 0 0 .001-.029l.008-.172a.884.884 0 0 0 .003-.058l.006-.143.003-.07.006-.13.003-.076.005-.13.003-.072.006-.133.003-.069.005-.14.003-.063.006-.166a.342.342 0 0 0 .002-.036l.007-.202c.002-.015.002-.027.002-.043l.006-.159.003-.066c.001-.044.002-.09.005-.134 0-.024.001-.052.003-.076l.003-.127a4.357 4.357 0 0 0 .008-.206c.002-.023.002-.047.003-.07l.004-.14.002-.063.006-.15v-.052c.004-.058.005-.116.007-.173a.251.251 0 0 1 .002-.032c.001-.07.004-.133.006-.204v-.04c.003-.053.004-.107.005-.16l.003-.067.004-.135c.001-.024.001-.051.003-.075l.003-.125.002-.082.004-.125.002-.075.004-.13.001-.073.004-.142.002-.06.005-.172a.251.251 0 0 1 .001-.031l.004-.202.001-.052.004-.15c.002-.023.002-.048.003-.072 0-.044.001-.087.003-.131v-.073l.005-.132.001-.075.003-.126.001-.08c.001-.044.003-.077.003-.12 0-.033 0-.053.002-.084.001-.044.001-.089.003-.133l.001-.066.004-.175v-.029l.004-.203.001-.05.003-.151.001-.07a4.704 4.704 0 0 1 .004-.21l.001-.123c.002-.031.002-.054.002-.086 0-.04 0-.078.002-.117 0-.025 0-.062.002-.087v-.117l.002-.084.001-.131c.002-.024.002-.048.002-.072l.002-.168v-.034c.002-.066.003-.132.003-.2l.001-.064.002-.14v-.076c0-.044 0-.08.002-.125v-.082l.001-.121c.002-.031.002-.054.002-.085l.001-.122v-.078l.001-.13.002-.075V257.911l.002-.184v-.021l.002-.203v-.405c.002-.025.002-.055.002-.078v-.207l.001-.123v-1.46z" style="fill:#a6f6cc"/>
        </g>
        <path d="M234.667 21.333h-.407l-.106.001h-.246l-.098.001h-.07l-.1.001h-.08l-.091.001h-.077l-.094.001h-.082l-.088.001-.085.001h-.087l-.082.001-.089.001-.08.001-.091.001h-.082l-.089.002h-.081l-.09.002h-.082l-.088.002-.082.001-.089.001-.083.001-.087.002h-.084l-.087.002-.084.002h-.087l-.083.002-.088.002-.082.001-.088.002-.082.001-.089.002-.083.002-.088.001-.08.002-.09.002-.085.002-.084.001-.087.002-.083.002-.088.002-.082.002-.089.002-.08.002-.092.002-.078.002-.09.002-.081.003-.09.002-.081.002-.087.002-.082.003-.091.002-.079.002-.09.003-.08.002-.09.003-.082.002-.087.003-.081.003-.091.002-.076.003-.095.003-.075.002-.095.003-.075.003-.095.003-.073.003-.1.003-.066.003-.102.003-.068.003-.102.003-.067.003-.103.004-.066.002-.105.004-.064.003-.104.004-.064.002-.107.005-.062.002-.106.004-.062.003-.111.005-.05.002-.118.005-.055.002-.115.005-.05.002-.118.005-.053.003-.118.005-.045.002-.123.006-.048.002-.122.006-.047.002-.12.006-.044.002-.129.006h-.01l-.158.008h-.008q-1.086.055-2.17.12l-.004.001-.147.009-.024.001-.16.01h-.004l-.154.01-.016.001-.154.01-.012.001-.144.01-.028.001-.146.01h-.02l-.142.01-.027.002-.14.01-.028.002-.134.009-.036.002-.135.01-.03.002-.134.009-.036.002-.132.01-.035.002-.13.01-.04.002-.133.01-.03.002-.136.01-.035.003-.134.01-.032.002-.132.01-.038.003-.134.01-.03.002-.135.01-.035.003-.134.01-.031.003-.134.01-.037.004-.133.01-.03.003-.137.01-.032.003-.137.011-.027.003-.137.01-.034.004-.138.011-.023.002-.146.012-.02.002-.146.012-.021.002-.144.012-.026.002-.143.013-.02.002-.147.012-.02.002-.15.013-.012.001-.153.014-.016.001-.153.014h-.008l-.158.015-.01.001-.158.014h-.004l-.161.016h-.008l-.16.015h-.002a195.04 195.04 0 0 0-24.012 3.767 21.333 21.333 0 1 0 9.225 41.658A153.373 153.373 0 0 1 234.667 64a21.333 21.333 0 0 0 0-42.667z" style="fill:#d6fce7"/>
    </g>
</svg>